<svg width="24" height="24" viewBox="0 0 24 24" fill="none" xmlns="http://www.w3.org/2000/svg">
<g clip-path="url(#clip0_55_95)">
<path d="M9.16355 18.3281C7.35086 18.3285 5.5788 17.7912 4.07152 16.7842C2.56424 15.7773 1.38947 14.3459 0.695798 12.6712C0.00212984 10.9965 -0.179265 9.15367 0.174559 7.37586C0.528383 5.59804 1.40153 3.9651 2.68355 2.68359C6.25542 -0.888752 12.0675 -0.888752 15.6398 2.68359C19.2121 6.25594 19.2117 12.0675 15.6398 15.6398C14.79 16.4917 13.7806 17.1676 12.6694 17.6289C11.5581 18.0902 10.3668 18.3278 9.16355 18.3281ZM9.16355 2.34843C7.7003 2.34984 6.27632 2.8219 5.10199 3.69486C3.92767 4.56782 3.06531 5.79537 2.64232 7.19615C2.21932 8.59692 2.25815 10.0966 2.75304 11.4736C3.24794 12.8506 4.17267 14.0319 5.39058 14.843C5.77239 15.0974 6.17919 15.3121 6.60464 15.4837C7.8457 15.9869 9.20754 16.1129 10.5198 15.8461C11.8322 15.5793 13.0367 14.9315 13.9828 13.9837C16.641 11.3255 16.641 6.99937 13.9828 4.34203C13.3502 3.70833 12.5986 3.20586 11.7713 2.8635C10.9439 2.52113 10.0571 2.34562 9.16167 2.34703L9.16355 2.34843Z" fill="#898989"/>
<path d="M22.828 24C22.6741 24.0002 22.5216 23.97 22.3794 23.9111C22.2372 23.8523 22.108 23.7658 21.9993 23.6569L13.9837 15.6413C13.7639 15.4215 13.6404 15.1233 13.6404 14.8125C13.6404 14.5017 13.7639 14.2036 13.9837 13.9838C14.2035 13.764 14.5016 13.6405 14.8124 13.6405C15.1232 13.6405 15.4214 13.764 15.6412 13.9838L23.6568 21.9994C23.8207 22.1633 23.9323 22.3721 23.9776 22.5995C24.0228 22.8268 23.9996 23.0625 23.9109 23.2766C23.8222 23.4908 23.6719 23.6738 23.4792 23.8026C23.2864 23.9314 23.0598 24.0001 22.828 24Z" fill="#898989"/>
</g>
<defs>
<clipPath id="clip0_55_95">
<rect width="24" height="24" fill="white"/>
</clipPath>
</defs>
</svg>
