<svg width="20" height="20" viewBox="0 0 20 20" fill="none" xmlns="http://www.w3.org/2000/svg">
<path d="M19.8573 15.4858C18.0733 12.5109 16.9999 11.212 16.9999 7.99997C16.9981 6.31756 16.3908 4.692 15.2891 3.42046C14.1874 2.14893 12.6649 1.31636 10.9999 1.07497V0.999969C10.9999 0.734753 10.8946 0.480399 10.707 0.292863C10.5195 0.105326 10.2651 -3.05176e-05 9.99992 -3.05176e-05C9.7347 -3.05176e-05 9.48034 0.105326 9.29281 0.292863C9.10527 0.480399 8.99992 0.734753 8.99992 0.999969V1.07917C7.32459 1.39641 5.81104 2.28459 4.71703 3.59244C3.62301 4.9003 3.01619 6.54695 2.99991 8.25197C2.99991 11.212 1.73791 12.826 0.142514 15.4859C0.0515719 15.6376 0.00250542 15.8107 0.000320446 15.9876C-0.00186452 16.1645 0.0429102 16.3388 0.130077 16.4927C0.217243 16.6467 0.343681 16.7747 0.496492 16.8638C0.649304 16.9529 0.823018 16.9999 0.999914 17H18.9999C19.1768 16.9999 19.3506 16.9529 19.5034 16.8638C19.6562 16.7747 19.7827 16.6466 19.8698 16.4927C19.957 16.3388 20.0018 16.1644 19.9996 15.9875C19.9974 15.8106 19.9483 15.6375 19.8573 15.4858Z" fill="#384144"/>
<path d="M12 18H8.00003C7.73481 18 7.48046 18.1054 7.29292 18.2929C7.10539 18.4804 7.00003 18.7348 7.00003 19C7.00003 19.2652 7.10539 19.5196 7.29292 19.7071C7.48046 19.8947 7.73481 20 8.00003 20H12C12.2652 20 12.5196 19.8947 12.7071 19.7071C12.8947 19.5196 13 19.2652 13 19C13 18.7348 12.8947 18.4804 12.7071 18.2929C12.5196 18.1054 12.2652 18 12 18Z" fill="#384144"/>
</svg>
